<svg width="18" height="18" viewBox="0 0 18 18" fill="none" xmlns="http://www.w3.org/2000/svg">
<path d="M6.80859 6.75015C7.16548 5.71518 8.20206 5.0937 9.26205 5.27918C10.322 5.46466 11.0963 6.40301 11.0947 7.50015C11.0947 9.00015 8.88918 9.75015 8.88918 9.75015" stroke="#7A859E" stroke-width="2" stroke-linecap="round" stroke-linejoin="round"/>
<path fill-rule="evenodd" clip-rule="evenodd" d="M8.94808 16.5C13.0084 16.5 16.3 13.1421 16.3 9C16.3 4.85786 13.0084 1.5 8.94808 1.5C4.88774 1.5 1.59619 4.85786 1.59619 9C1.59619 13.1421 4.88774 16.5 8.94808 16.5Z" stroke="#7A859E" stroke-width="2" stroke-linecap="round" stroke-linejoin="round"/>
<mask id="path-3-inside-1" fill="white">
<ellipse cx="8.94808" cy="12.75" rx="0.735188" ry="0.75"/>
</mask>
<ellipse cx="8.94808" cy="12.75" rx="0.735188" ry="0.75" fill="white"/>
<path d="M8.68327 12.75C8.68327 12.6308 8.78312 12.5 8.94808 12.5V14.5C9.92511 14.5 10.6833 13.6976 10.6833 12.75H8.68327ZM8.94808 12.5C9.11304 12.5 9.21289 12.6308 9.21289 12.75H7.21289C7.21289 13.6976 7.97105 14.5 8.94808 14.5V12.5ZM9.21289 12.75C9.21289 12.8692 9.11304 13 8.94808 13V11C7.97105 11 7.21289 11.8024 7.21289 12.75H9.21289ZM8.94808 13C8.78312 13 8.68327 12.8692 8.68327 12.75H10.6833C10.6833 11.8024 9.92511 11 8.94808 11V13Z" fill="#7A859E" mask="url(#path-3-inside-1)"/>
</svg>
