<svg width="36" height="36" viewBox="0 0 36 36" fill="none" xmlns="http://www.w3.org/2000/svg">
<path fill-rule="evenodd" clip-rule="evenodd" d="M18 36C27.9411 36 36 27.9411 36 18C36 8.05887 27.9411 0 18 0C8.05887 0 0 8.05887 0 18C0 27.9411 8.05887 36 18 36ZM18.0002 34.9055C27.3368 34.9055 34.9057 27.3366 34.9057 18C34.9057 8.66335 27.3368 1.09451 18.0002 1.09451C8.66358 1.09451 1.09474 8.66335 1.09474 18C1.09474 27.3366 8.66358 34.9055 18.0002 34.9055Z" fill="#9FAAC4"/>
<path d="M14.0837 23.7388C14.5319 24.012 15.0585 24.2511 15.6635 24.4561C16.291 24.6382 16.9296 24.7293 17.5795 24.7293C18.3189 24.7293 18.9464 24.5472 19.4618 24.1828C19.9772 23.7957 20.2349 23.1809 20.2349 22.3383C20.2349 21.6324 20.078 21.0517 19.7643 20.5963C19.4506 20.1408 19.0472 19.7309 18.5542 19.3666C18.0837 19.0022 17.5683 18.6721 17.008 18.376C16.4478 18.0572 15.9212 17.6815 15.4282 17.2488C14.9577 16.8162 14.5655 16.3038 14.2518 15.7117C13.9381 15.1197 13.7812 14.3682 13.7812 13.4573C13.7812 12 14.1622 10.9069 14.924 10.1782C15.7083 9.42676 16.8064 9.05103 18.2181 9.05103C19.1369 9.05103 19.9324 9.14211 20.6046 9.32429C21.2769 9.48369 21.8595 9.7114 22.3525 10.0074L21.7138 12.0569C21.2881 11.8292 20.7951 11.647 20.2349 11.5104C19.6747 11.351 19.1032 11.2713 18.5206 11.2713C17.7139 11.2713 17.1201 11.4421 16.7391 11.7836C16.3806 12.1252 16.2013 12.6603 16.2013 13.389C16.2013 13.9583 16.3582 14.4479 16.6719 14.8578C16.9856 15.2449 17.3778 15.6093 17.8484 15.9508C18.3414 16.2696 18.868 16.5998 19.4282 16.9414C19.9884 17.283 20.5038 17.6929 20.9744 18.1711C21.4674 18.6265 21.8707 19.1844 22.1844 19.8448C22.4981 20.4824 22.655 21.2908 22.655 22.27C22.655 22.9076 22.5542 23.511 22.3525 24.0803C22.1508 24.6496 21.8371 25.1506 21.4113 25.5833C21.008 25.9932 20.4926 26.3233 19.8651 26.5738C19.2601 26.8243 18.543 26.9496 17.7139 26.9496C16.7279 26.9496 15.8764 26.8471 15.1593 26.6421C14.4423 26.46 13.8372 26.2095 13.3442 25.8907L14.0837 23.7388Z" fill="#181B2B"/>
<ellipse cx="7.14102" cy="17.824" rx="1.94864" ry="1.98021" fill="#181B2B"/>
<ellipse cx="28.8588" cy="17.824" rx="1.94864" ry="1.98021" fill="#181B2B"/>
</svg>
