<svg width="24" height="24" viewBox="0 0 24 24" fill="none" xmlns="http://www.w3.org/2000/svg">
<circle cx="12" cy="12" r="12" fill="white"/>
<path d="M9.22022 16.0736C9.53834 16.2675 9.91214 16.4373 10.3416 16.5827C10.787 16.7121 11.2403 16.7767 11.7016 16.7767C12.2265 16.7767 12.6719 16.6474 13.0377 16.3888C13.4036 16.114 13.5865 15.6776 13.5865 15.0795C13.5865 14.5784 13.4751 14.1662 13.2525 13.8429C13.0298 13.5197 12.7435 13.2287 12.3935 12.9701C12.0595 12.7115 11.6936 12.4771 11.296 12.267C10.8983 12.0407 10.5245 11.774 10.1746 11.4668C9.84056 11.1597 9.5622 10.796 9.33952 10.3758C9.11683 9.9555 9.00548 9.42209 9.00548 8.77553C9.00548 7.74103 9.27589 6.96516 9.8167 6.44791C10.3734 5.9145 11.1528 5.6478 12.1549 5.6478C12.8071 5.6478 13.3718 5.71245 13.8489 5.84176C14.3261 5.95491 14.7397 6.11655 15.0896 6.32668L14.6363 7.78144C14.3341 7.6198 13.9841 7.49049 13.5865 7.39351C13.1888 7.28036 12.7832 7.22379 12.3697 7.22379C11.797 7.22379 11.3755 7.34502 11.1051 7.58748C10.8506 7.82994 10.7234 8.20979 10.7234 8.72704C10.7234 9.13114 10.8347 9.47866 11.0574 9.76962C11.2801 10.0444 11.5584 10.303 11.8925 10.5455C12.2424 10.7718 12.6162 11.0062 13.0139 11.2486C13.4115 11.4911 13.7774 11.782 14.1114 12.1215C14.4613 12.4448 14.7476 12.8408 14.9703 13.3095C15.193 13.7621 15.3044 14.3359 15.3044 15.031C15.3044 15.4836 15.2328 15.9119 15.0896 16.316C14.9465 16.7201 14.7238 17.0757 14.4216 17.3829C14.1353 17.6738 13.7694 17.9082 13.324 18.086C12.8946 18.2638 12.3856 18.3527 11.797 18.3527C11.0972 18.3527 10.4927 18.28 9.98372 18.1345C9.47472 18.0052 9.04525 17.8274 8.69531 17.6011L9.22022 16.0736Z" fill="#265CC6"/>
<ellipse cx="4.2914" cy="11.8751" rx="1.3832" ry="1.40561" fill="#265CC6"/>
<ellipse cx="19.7074" cy="11.8751" rx="1.3832" ry="1.40561" fill="#265CC6"/>
</svg>
