<svg width="24" height="24" viewBox="0 0 24 24" fill="none" xmlns="http://www.w3.org/2000/svg">
<g clip-path="url(#clip0)">
<path d="M15.3646 20.4719L14.2246 23.9999L13.0846 20.4719C12.547 18.8039 11.239 17.4959 9.57097 16.9583L6.04297 15.8183L9.57097 14.6783C11.239 14.1407 12.547 12.8327 13.0846 11.1647L14.2246 7.63672L15.3646 11.1647C15.9022 12.8327 17.2102 14.1407 18.8782 14.6783L22.4062 15.8183L18.8782 16.9583C17.2102 17.4959 15.9046 18.8039 15.3646 20.4719Z" fill="#FDD80F"/>
<path d="M6.67889 11.1217L6.04289 13.0921L5.40689 11.1217C5.13809 10.2889 4.48289 9.63368 3.65009 9.36488L1.67969 8.72648L3.65009 8.09048C4.48289 7.82168 5.13809 7.16648 5.40689 6.33368L6.04289 4.36328L6.67889 6.33368C6.94769 7.16648 7.60289 7.82168 8.43569 8.09048L10.4061 8.72648L8.43569 9.36248C7.60289 9.63368 6.95009 10.2865 6.67889 11.1217Z" fill="#FDD80F"/>
<path d="M12.4292 4.2552L12.0428 5.4528L11.6564 4.2552C11.4812 3.7128 11.0564 3.288 10.514 3.1128L9.31641 2.7264L10.514 2.34C11.0564 2.1648 11.4812 1.74 11.6564 1.1976L12.0428 0L12.4292 1.1976C12.6044 1.74 13.0292 2.1648 13.5716 2.34L14.7692 2.7264L13.5716 3.1128C13.0292 3.2904 12.6044 3.7152 12.4292 4.2552Z" fill="#FDD80F"/>
</g>
<defs>
<clipPath id="clip0">
<rect width="24" height="24" fill="white"/>
</clipPath>
</defs>
</svg>
